PathFileType	4	(X/Y/Z)	C:\Users\86182\Documents\cortex\Trimmed_M1_L11.trc
DataRate	CameraRate	NumFrames	NumMarkers	Units	OrigDataRate	OrigDataStartFrame	OrigNumFrames
100.00	100.00	       169	2	mm	100.00	181	       901
Frame#	Time	gripper			box			
		X1	Y1	Z1	X2	Y2	Z2	

181	1.800	200.25305	195.22261	224.43253	202.35600	194.45685	88.11307	
182	1.810	200.11038	195.42529	224.91638	202.62822	194.42119	88.46651	
183	1.820	199.93401	195.37926	225.28960	202.35658	194.31987	88.94717	
184	1.830	199.98288	195.33420	225.61719	202.51537	194.50917	89.62582	
185	1.840	200.06143	195.32196	226.10104	202.51840	194.34813	89.86517	
186	1.850	200.11205	195.29205	226.57310	202.40810	194.30577	90.19228	
187	1.860	200.03812	195.36732	226.96777	202.38925	194.40100	90.40839	
188	1.870	199.94067	195.41827	227.35541	202.25395	194.33298	91.16283	
189	1.880	200.18161	195.42041	227.77138	202.43962	194.30045	91.50780	
190	1.890	200.08580	195.33418	228.08965	202.41054	194.39122	92.02248	
191	1.900	200.00989	195.39870	228.55180	202.41939	194.30237	92.31339	
192	1.910	200.09285	195.35690	229.07799	202.29536	194.35715	92.83463	
193	1.920	200.09283	195.46544	229.59055	202.23906	194.35019	93.33983	
194	1.930	199.94310	195.37004	229.91550	202.31520	194.41275	93.65775	
195	1.940	199.93166	195.46671	230.44652	202.34160	194.39441	94.26486	
196	1.950	199.94649	195.44353	230.83731	202.52556	194.40788	94.51632	
197	1.960	200.05856	195.37502	231.32352	202.27798	194.38998	95.21954	
198	1.970	200.08331	195.46194	231.68619	202.23694	194.46582	95.50251	
199	1.980	200.05948	195.50009	232.23512	202.14134	194.48334	95.73707	
200	1.990	199.90584	195.46443	232.57166	202.24719	194.37401	96.18085	
201	2.000	199.87108	195.46370	232.87068	202.52196	194.47285	96.80201	
202	2.010	199.86330	195.48518	233.22601	202.27440	194.31125	97.17577	
203	2.020	200.15277	195.53917	233.86119	202.24887	194.51285	97.55199	
204	2.030	199.92697	195.47252	234.29942	202.09477	194.44283	97.81419	
205	2.040	199.87350	195.48717	234.60960	202.10455	194.41290	98.31233	
206	2.050	199.77182	195.45480	234.97597	202.19577	194.45056	98.57661	
207	2.060	199.89302	195.52969	235.35107	202.12573	194.44798	99.22224	
208	2.070	199.84428	195.50008	235.91318	202.27368	194.44496	99.58463	
209	2.080	200.02271	195.51924	236.26953	202.27559	194.48367	100.14641	
210	2.090	200.08334	195.58180	236.73640	202.24487	194.42670	100.38493	
211	2.100	200.15675	195.55605	237.14993	202.33849	194.58615	100.71465	
212	2.110	199.97218	195.62923	237.52995	202.11211	194.53445	101.42140	
213	2.120	200.01457	195.59824	238.18500	202.26834	194.52443	101.99612	
214	2.130	200.20776	195.65381	238.72266	202.29114	194.57887	102.34886	
215	2.140	200.20314	195.58833	238.95828	202.52968	194.62320	102.53722	
216	2.150	200.04361	195.62444	239.42973	202.35980	194.63644	103.20702	
217	2.160	199.96400	195.62286	239.93703	201.11890	195.71582	104.78417	
218	2.170	199.88499	195.72572	240.45679	202.21046	194.71661	104.17809	
219	2.180	200.13211	195.71794	240.78485	202.29298	194.78070	104.43707	
220	2.190	200.19722	195.69000	241.14462	202.60255	194.57442	104.82841	
221	2.200	200.08685	195.67458	241.61580	202.17201	194.60846	105.46378	
222	2.210	200.05898	195.68721	241.91914	202.08842	194.64932	105.69241	
223	2.220	199.84738	195.74571	242.32945	202.12486	194.60249	105.91408	
224	2.230	199.86842	195.72092	242.84999	202.26857	194.75426	106.57931	
225	2.240	199.99956	195.72829	243.33728	202.33752	194.70799	107.03117	
226	2.250	199.91515	195.70641	243.62015	202.14944	194.59596	107.28413	
227	2.260	199.97372	195.72728	244.06328	202.01765	194.64160	107.85334	
228	2.270	199.94115	195.71962	244.55458	202.04765	194.60193	108.18909	
229	2.280	199.95624	195.78497	244.92189	202.29231	194.73289	108.66961	
230	2.290	199.90584	195.78229	245.37291	202.27438	194.71289	109.00214	
231	2.300	200.16595	195.73752	245.82216	202.23172	194.69025	109.45596	
232	2.310	200.07402	195.69948	246.30426	202.23456	194.61781	110.15282	
233	2.320	200.06297	195.75308	246.68890	202.32224	194.74507	110.41467	
234	2.330	200.02003	195.89795	247.16112	202.34953	194.68100	110.63356	
235	2.340	200.13052	195.80345	247.68036	202.42244	194.73785	111.22904	
236	2.350	200.12965	195.67838	247.98555	202.16730	194.66501	111.90619	
237	2.360	200.09999	195.73209	248.31651	202.17488	194.83720	112.24294	
238	2.370	200.18398	195.77945	248.88353	202.14613	194.81039	112.46344	
239	2.380	199.86609	195.69713	249.37039	202.27437	194.64885	112.74684	
240	2.390	199.89005	195.64247	249.74731	202.16476	194.67297	113.37553	
241	2.400	199.73102	195.57175	249.89412	202.07007	194.71416	113.88820	
242	2.410	199.92474	195.60179	250.55885	202.06989	194.84453	114.20429	
243	2.420	199.74336	195.58290	250.92480	202.00529	194.72910	114.54544	
244	2.430	199.80894	195.60989	251.29556	202.12990	194.59802	115.05763	
245	2.440	199.61331	195.46507	251.73438	201.75632	194.49736	115.43133	
246	2.450	199.89282	195.55104	252.29829	201.60585	194.49074	115.88840	
247	2.460	199.71599	195.52252	252.58409	201.76920	194.60934	116.27750	
248	2.470	199.71312	195.60196	252.95441	201.94765	194.61436	116.81609	
249	2.480	199.68504	195.52748	253.54536	201.90791	194.57368	117.02746	
250	2.490	199.75798	195.62288	253.97972	201.82347	194.53839	117.62443	
251	2.500	199.73944	195.67719	254.27963	201.65993	194.61086	118.09226	
252	2.510	199.48160	195.53470	254.80864	201.93596	194.66628	118.46928	
253	2.520	199.82388	195.68336	255.42773	201.84940	194.71367	118.99233	
254	2.530	199.71822	195.64827	255.63675	201.80699	194.72388	119.31554	
255	2.540	199.47748	195.55383	256.15063	201.72505	194.66971	119.80605	
256	2.550	199.54912	195.62009	256.71954	201.86247	194.71753	120.31567	
257	2.560	199.63490	195.75330	257.02429	201.82413	194.65234	120.53841	
258	2.570	199.37953	195.73560	257.46130	201.77986	194.73941	121.06370	
259	2.580	199.34189	195.54671	257.83701	201.68718	194.77733	121.64429	
260	2.590	199.44646	195.64767	258.30475	201.58458	194.82123	122.11340	
261	2.600	199.53705	195.68759	258.70886	201.59348	194.72284	122.34940	
262	2.610	199.23610	195.66161	259.17130	201.61713	194.70180	122.74036	
263	2.620	199.25522	195.64049	259.55386	201.49286	194.72984	123.07173	
264	2.630	199.41772	195.72876	259.91599	201.63010	194.77434	123.75921	
265	2.640	199.41444	195.67516	260.33264	201.46573	194.67636	124.19571	
266	2.650	199.41072	195.63452	260.76044	201.42226	194.68134	124.51516	
267	2.660	199.43309	195.73380	261.33630	201.39244	194.75450	124.81592	
268	2.670	199.38341	195.80267	261.73450	201.52786	194.75204	125.35914	
269	2.680	199.33417	195.72050	262.09711	201.51288	194.78764	125.82980	
270	2.690	199.32977	195.63708	262.51996	201.35262	194.74846	126.40059	
271	2.700	199.49138	195.73721	263.08850	201.48030	194.73274	126.72632	
272	2.710	199.51082	195.81616	263.42038	201.59398	194.81227	127.03931	
273	2.720	199.46451	195.81079	263.85852	201.33638	194.80530	127.52654	
274	2.730	199.58847	195.76688	264.29114	201.35962	194.72000	127.98758	
275	2.740	199.43576	195.78448	264.74048	201.49048	194.89622	128.62453	
276	2.750	199.53622	195.78322	265.22644	201.50809	194.91231	128.98665	
277	2.760	199.47595	195.85461	265.64713	201.29308	194.79208	129.33948	
278	2.770	199.33063	195.84416	266.10422	201.17455	194.91528	129.70784	
279	2.780	199.29660	195.82228	266.37888	201.33195	194.89630	130.13499	
280	2.790	199.42577	195.77208	266.76230	201.40691	194.90218	130.53983	
281	2.800	199.51457	195.80032	267.27866	201.46323	194.78511	131.03534	
282	2.810	199.28491	195.84724	267.77505	201.35831	194.86768	131.35539	
283	2.820	199.42467	195.86961	268.12833	201.21246	194.91159	131.78653	
284	2.830	199.23825	195.89389	268.48007	201.20450	194.96844	132.31998	
285	2.840	199.31738	195.89268	268.83026	201.15613	194.74660	132.59622	
286	2.850	199.42735	195.77199	269.25037	201.34187	194.84375	132.83269	
287	2.860	199.47157	195.88605	269.74374	201.49156	194.92799	133.35759	
288	2.870	199.43163	195.89928	270.19449	201.45859	194.90234	134.01231	
289	2.880	199.45659	195.90164	270.61499	201.14169	194.85623	134.43718	
290	2.890	199.41916	195.85289	270.90607	201.23891	194.91072	134.51309	
291	2.900	199.60706	195.89407	271.39078	201.48515	194.85889	134.97902	
292	2.910	199.69360	195.81599	272.00821	201.52522	194.92064	135.66165	
293	2.920	199.53091	195.94734	272.44150	201.55714	194.89000	136.11285	
294	2.930	199.51674	195.94591	272.74899	201.25484	194.94861	136.49585	
295	2.940	199.47908	195.91125	273.15558	201.35075	194.90570	136.97449	
296	2.950	199.64937	195.81917	273.63452	201.46968	194.84648	137.31444	
297	2.960	199.82469	195.90202	274.13736	201.51192	194.94304	137.68649	
298	2.970	199.64191	195.97267	274.63849	201.36723	194.94159	138.32184	
299	2.980	199.55830	195.90532	274.98764	201.50443	194.98105	138.90651	
300	2.990	199.48917	195.88924	275.22040	201.49590	195.00816	139.06909	
301	3.000	199.54025	196.02864	275.67725	201.36133	195.04372	139.25815	
302	3.010	199.57361	196.04044	276.38864	201.33157	194.89346	139.84442	
303	3.020	199.51688	195.95857	276.78989	201.30949	194.88535	140.56314	
304	3.030	199.58272	196.03168	277.02728	201.33221	195.04924	140.85905	
305	3.040	199.59041	195.93423	277.43704	201.40112	195.14049	141.12840	
306	3.050	199.37209	196.02707	277.89343	201.20132	194.93861	141.54449	
307	3.060	199.24812	196.06491	278.32349	201.24319	194.91249	141.91341	
308	3.070	199.45963	196.09251	278.75537	201.31506	194.97015	142.34088	
309	3.080	199.59886	196.01270	279.10641	201.49919	195.12877	142.69739	
310	3.090	199.56424	195.93803	279.54233	201.28497	195.09917	143.32724	
311	3.100	199.38622	195.96800	279.89609	201.36031	194.99246	143.76805	
312	3.110	199.44411	196.16188	280.45255	201.38803	195.03847	144.06396	
313	3.120	199.53680	196.04076	280.98691	201.35056	194.97095	144.35919	
314	3.130	199.70570	195.96678	281.33441	201.60577	195.07161	145.01204	
315	3.140	199.81331	196.01602	281.58066	201.40509	195.06476	145.50116	
316	3.150	199.63499	196.01048	282.21463	201.67075	195.16283	145.79129	
317	3.160	199.43936	196.09309	282.50836	201.37091	195.00078	146.34224	
318	3.170	199.62077	195.94716	283.00070	201.51552	194.99219	146.62706	
319	3.180	199.93109	196.00325	283.52518	201.55396	195.11923	147.01962	
320	3.190	199.73640	195.86002	283.86765	201.50854	195.09145	147.53650	
321	3.200	199.53131	195.98622	284.26620	201.38342	195.06404	147.97427	
322	3.210	199.47075	195.91653	284.58749	201.44524	194.96022	148.55420	
323	3.220	199.58817	195.92293	285.31702	201.50130	194.94031	148.69669	
324	3.230	199.51460	195.84462	285.58572	201.19058	194.86072	149.04395	
325	3.240	199.52469	195.78354	285.89627	201.29919	194.95113	149.47452	
326	3.250	199.38977	195.93849	286.33521	201.33772	194.97701	150.15541	
327	3.260	199.43987	195.86493	286.82977	201.18086	194.85068	150.61226	
328	3.270	199.36374	195.88463	287.21426	201.32591	194.95674	150.77998	
329	3.280	199.26086	195.82117	287.60339	201.28252	194.85675	151.12534	
330	3.290	199.22227	195.83794	288.10178	201.14235	194.97145	151.64801	
331	3.300	199.53647	195.94882	288.46875	201.05479	194.85747	152.19121	
332	3.310	199.43192	195.88452	288.73447	201.17609	194.91716	152.50945	
333	3.320	199.23213	195.71556	289.14487	201.22701	194.95531	152.84962	
334	3.330	199.18547	195.76382	289.69751	201.16759	194.79547	153.23599	
335	3.340	199.47432	195.98276	289.95206	201.22191	194.73656	153.57756	
336	3.350	199.41895	195.88448	290.19812	201.14789	194.89395	153.82732	
337	3.360	199.47740	195.81567	290.59500	201.09653	194.94743	154.25327	
338	3.370	199.40469	195.71437	290.92108	201.32664	194.97659	154.61098	
339	3.380	199.52641	195.87991	291.18649	201.34117	194.88124	155.00580	
340	3.390	199.54361	195.93376	291.43185	201.38002	194.88283	155.16771	
341	3.400	199.61278	196.03920	291.63596	201.37282	194.92438	155.35966	
342	3.410	199.40903	195.95122	291.86163	201.47734	194.96642	155.42789	
343	3.420	199.51587	195.91971	291.98578	201.53047	194.91707	155.65553	
344	3.430	199.46634	195.78592	292.20605	201.50812	194.96527	155.72110	
345	3.440	199.35716	195.80333	292.32825	201.39362	195.00073	155.89026	
346	3.450	199.48486	195.85442	292.57175	201.20926	194.90114	156.23312	
347	3.460	199.44881	195.98625	292.78265	201.23633	194.87677	156.31091	
348	3.470	199.55533	196.05133	292.84967	201.17749	194.86023	156.36427	
349	3.480	199.60269	196.04237	292.87103	201.16306	194.90050	156.49294	
